<svg xmlns="http://www.w3.org/2000/svg" viewBox="0 0 30 20" role="img" aria-label="Saudi Arabia">
  <rect width="30" height="20" fill="#006C35"/>
  <path fill="#fff" d="M7.5 14.2c2.4-.5 5-.5 7.4 0 .35.07.58.4.51.75-.07.35-.4.58-.75.51-2.1-.45-4.4-.45-6.5 0-.35.07-.68-.16-.75-.51-.07-.35.16-.68.51-.75z"/>
  <path fill="#fff" d="M6.8 10.2h16.4c.45 0 .8-.35.8-.8s-.35-.8-.8-.8H6.8c-.45 0-.8.35-.8.8s.35.8.8.8z"/>
  <path fill="#fff" d="M19.2 7.8c.9 0 1.6-.7 1.6-1.6s-.7-1.6-1.6-1.6-1.6.7-1.6 1.6.7 1.6 1.6 1.6z"/>
  <path fill="#fff" d="M11.2 7.8c.9 0 1.6-.7 1.6-1.6s-.7-1.6-1.6-1.6-1.6.7-1.6 1.6.7 1.6 1.6 1.6z"/>
</svg>
